<svg width="35" height="35" viewBox="0 0 35 35" fill="none" xmlns="http://www.w3.org/2000/svg">
<path d="M17.5 13.125C15.1288 13.125 13.125 15.1288 13.125 17.5C13.125 19.8713 15.1288 21.875 17.5 21.875C19.8713 21.875 21.875 19.8713 21.875 17.5C21.875 15.1288 19.8713 13.125 17.5 13.125Z" fill="black"/>
<path d="M29.1665 7.2915H25.3953L21.4475 3.3438C21.3123 3.20811 21.1517 3.1005 20.9747 3.02717C20.7978 2.95384 20.608 2.91623 20.4165 2.91651H14.5832C14.3916 2.91623 14.2019 2.95384 14.025 3.02717C13.848 3.1005 13.6873 3.20811 13.5521 3.3438L9.60442 7.2915H5.83317C4.22463 7.2915 2.9165 8.59963 2.9165 10.2082V26.2498C2.9165 27.8584 4.22463 29.1665 5.83317 29.1665H29.1665C30.775 29.1665 32.0832 27.8584 32.0832 26.2498V10.2082C32.0832 8.59963 30.775 7.2915 29.1665 7.2915ZM17.4998 24.7915C13.5478 24.7915 10.2082 21.4519 10.2082 17.4998C10.2082 13.5478 13.5478 10.2082 17.4998 10.2082C21.4519 10.2082 24.7915 13.5478 24.7915 17.4998C24.7915 21.4519 21.4519 24.7915 17.4998 24.7915Z" fill="black"/>
</svg>
