<svg width="27" height="27" viewBox="0 0 27 27" fill="none" xmlns="http://www.w3.org/2000/svg">
<path d="M13.5 26.988C12.6293 26.1304 11.6451 25.2384 10.6043 24.2894H10.5908C6.92551 20.9611 2.77156 17.195 0.936915 12.6823C0.334815 11.246 0.0148655 9.68378 1.54947e-05 8.09758C-0.0019848 7.0211 0.189706 5.95502 0.563832 4.96195C0.937958 3.96888 1.48698 3.06884 2.17865 2.31466C2.87033 1.56049 3.69072 0.967391 4.59165 0.570195C5.49258 0.172999 6.45588 -0.0202879 7.42501 0.00168347C9.01885 0.00447925 10.5784 0.516045 11.9178 1.47544C12.5064 1.89968 13.0389 2.41284 13.5 3.00016C13.9644 2.41546 14.4963 1.90272 15.0835 1.47544C16.4224 0.515855 17.9815 0.00425999 19.575 0.00168347C20.5441 -0.0202879 21.5074 0.172999 22.4084 0.570195C23.3093 0.967391 24.1297 1.56049 24.8213 2.31466C25.513 3.06884 26.062 3.96888 26.4362 4.96195C26.8103 5.95502 27.002 7.0211 27 8.09758C26.9862 9.685 26.6668 11.2508 26.0631 12.6898C24.2284 17.2025 20.0758 20.9671 16.4106 24.2894L16.3971 24.3014C15.3549 25.2444 14.3721 26.1364 13.5014 27L13.5 26.988ZM7.42501 3.00016C6.1675 2.98269 4.95461 3.51717 4.05001 4.48741C3.61862 4.95799 3.27682 5.52007 3.04491 6.14025C2.81299 6.76044 2.69571 7.42606 2.70001 8.09758C2.71486 9.252 2.95111 10.3914 3.39121 11.4379C4.25727 13.3849 5.42583 15.1471 6.84316 16.6432C8.18101 18.1425 9.72 19.5938 11.0511 20.8141C11.4197 21.1515 11.795 21.4918 12.1703 21.8321L12.4065 22.0465C12.767 22.3733 13.1396 22.7122 13.5 23.045L13.5175 23.027L13.5257 23.0195H13.5337L13.5459 23.009H13.5594L13.5837 22.9865L13.639 22.9371L13.6485 22.9281L13.6634 22.9161H13.6714L13.6836 22.9041L14.58 22.087L14.8149 21.8726C15.1942 21.5293 15.5695 21.1889 15.9381 20.8516C17.2692 19.6312 18.8095 18.1815 20.1474 16.6747C21.565 15.1794 22.7336 13.4177 23.5993 11.4709C24.0475 10.4154 24.2878 9.26399 24.3013 8.09758C24.3039 7.42798 24.1857 6.7646 23.9536 6.14659C23.7215 5.52859 23.3802 4.9685 22.95 4.4994C22.0471 3.52478 20.834 2.98589 19.575 3.00016C18.8154 2.993 18.063 3.16442 17.3673 3.50318C16.6716 3.84193 16.0484 4.34035 15.5385 4.96567L13.5 7.57435L11.4615 4.96567C10.9516 4.34035 10.3284 3.84193 9.63266 3.50318C8.93697 3.16442 8.18461 2.993 7.42501 3.00016Z" fill="black"/>
</svg>
