<svg width="33" height="33" viewBox="0 0 33 33" fill="none" xmlns="http://www.w3.org/2000/svg">
<path d="M30.0053 10.2176C29.8788 10.0349 29.7099 9.88546 29.513 9.78225C29.3162 9.67904 29.0973 9.62508 28.875 9.62501H10.0829L8.49613 5.81626C8.28807 5.31469 7.93577 4.88619 7.48388 4.5851C7.032 4.284 6.50088 4.12387 5.95788 4.12501H2.75V6.87501H5.95788L12.4809 22.5294C12.5854 22.7798 12.7616 22.9938 12.9875 23.1443C13.2133 23.2947 13.4786 23.375 13.75 23.375H24.75C25.3234 23.375 25.8363 23.0189 26.0384 22.484L30.1634 11.484C30.2413 11.2759 30.2677 11.0519 30.2401 10.8314C30.2126 10.6108 30.132 10.4002 30.0053 10.2176ZM23.7971 20.625H14.6671L11.2296 12.375H26.8909L23.7971 20.625Z" fill="black"/>
<path d="M14.4375 28.875C15.5766 28.875 16.5 27.9516 16.5 26.8125C16.5 25.6734 15.5766 24.75 14.4375 24.75C13.2984 24.75 12.375 25.6734 12.375 26.8125C12.375 27.9516 13.2984 28.875 14.4375 28.875Z" fill="black"/>
<path d="M24.0625 28.875C25.2016 28.875 26.125 27.9516 26.125 26.8125C26.125 25.6734 25.2016 24.75 24.0625 24.75C22.9234 24.75 22 25.6734 22 26.8125C22 27.9516 22.9234 28.875 24.0625 28.875Z" fill="black"/>
</svg>
