<svg width="45" height="45" viewBox="0 0 45 45" fill="none" xmlns="http://www.w3.org/2000/svg">
<path d="M22.5 45L0 31.5V13.5L22.5 27V45Z" fill="#89664C"/>
<path d="M22.5 27V45L45 31.5V13.5L22.5 27Z" fill="#FED0AC"/>
<path d="M0 13.5L22.5 27L45 13.5L22.5 0L0 13.5Z" fill="#D3976E"/>
<path d="M35.7891 18.9844L13.3594 5.48438L9.14062 8.01562L31.6406 21.5156L35.7891 18.9844Z" fill="#89664C"/>
<path d="M27.6328 4.78125L22.6406 1.6875L18.4922 4.21875L23.4844 7.24219L27.6328 4.78125Z" fill="#D0D0D0"/>
<path d="M35.7188 19.0547L31.7812 21.4453V27.9141L35.7188 25.5234V19.0547Z" fill="#D3976E"/>
<path d="M43.9453 15.5391L39.9375 17.9297V24.3984L43.9453 22.0078V15.5391Z" fill="white"/>
<path d="M29.25 30.5859L23.8359 33.8203V42.6797L29.25 39.375V30.5859Z" fill="white"/>
<path d="M31.7812 39.4453L35.7188 37.0547V30.5859L31.7812 32.9766V39.4453Z" fill="#D3976E"/>
</svg>
