<svg width="45" height="45" viewBox="0 0 45 45" fill="none" xmlns="http://www.w3.org/2000/svg">
<path d="M21.1797 6.67969H23.8164C24.0508 6.67969 24.168 6.79687 24.168 7.03125V37.9688C24.168 38.2031 24.0508 38.3203 23.8164 38.3203H21.1797C20.9453 38.3203 20.8281 38.2031 20.8281 37.9688V7.03125C20.8281 6.79687 20.9453 6.67969 21.1797 6.67969Z" fill="black"/>
<path d="M7.73438 20.8301H37.2656C37.5 20.8301 37.6172 20.9473 37.6172 21.1816V23.8184C37.6172 24.0527 37.5 24.1699 37.2656 24.1699H7.73438C7.5 24.1699 7.38281 24.0527 7.38281 23.8184V21.1816C7.38281 20.9473 7.5 20.8301 7.73438 20.8301Z" fill="black"/>
</svg>
