<svg width="25" height="25" viewBox="0 0 25 25" fill="none" xmlns="http://www.w3.org/2000/svg">
<path d="M25 2.73438V14.4531C25 15.1003 24.4753 15.625 23.8281 15.625H19.9219C19.2747 15.625 18.75 15.1003 18.75 14.4531V2.73438C18.75 2.08716 19.2747 1.5625 19.9219 1.5625H23.8281C24.4753 1.5625 25 2.08716 25 2.73438ZM23.0469 12.5C23.0469 11.8528 22.5222 11.3281 21.875 11.3281C21.2278 11.3281 20.7031 11.8528 20.7031 12.5C20.7031 13.1472 21.2278 13.6719 21.875 13.6719C22.5222 13.6719 23.0469 13.1472 23.0469 12.5ZM9.76562 25C10.7511 25 11.2053 23.0814 11.4224 22.178C11.6766 21.1201 11.9395 20.0261 12.6623 19.3019C14.2477 17.7138 15.0794 15.6902 17.0137 13.7789C17.0688 13.7245 17.1125 13.6597 17.1423 13.5883C17.1721 13.5169 17.1875 13.4402 17.1875 13.3628V2.92485C17.1875 2.60547 16.9314 2.34487 16.6121 2.33901C15.8391 2.32485 14.8204 1.8957 14.0413 1.54907C12.4908 0.859277 10.5611 0.000830078 8.20337 0H8.0645C5.97578 0 3.50576 0.020166 2.50913 1.452C2.09936 2.04072 1.99907 2.77202 2.20893 3.6313C1.41245 4.46396 0.985155 6.01719 1.40903 7.28154C0.552391 8.42568 0.474316 10.0224 0.95454 11.1619L0.949167 11.1672C0.368456 11.7507 -0.00410271 12.6936 -1.90735e-06 13.5694C0.00761604 15.0515 1.27719 16.4062 2.90786 16.4062H7.87485C7.51807 17.79 6.25 18.9518 6.25 21.0229C6.25 24.6094 8.59375 25 9.76562 25Z" fill="#D92C27"/>
</svg>
