<svg width="20" height="22" viewBox="0 0 20 22" fill="none" xmlns="http://www.w3.org/2000/svg">
<path d="M9.44582 21.5669C9.76432 21.737 10.1641 21.7359 10.4826 21.5659C19.1622 16.9032 19.7787 7.79345 19.7711 5.2032C19.7702 4.99501 19.7087 4.79159 19.594 4.61784C19.4794 4.44408 19.3165 4.30755 19.1254 4.22495L10.4046 0.361782C10.2658 0.300606 10.1158 0.269101 9.96408 0.269288C9.81241 0.269474 9.66246 0.301348 9.52382 0.362866L0.863655 4.22603C0.675368 4.30868 0.514807 4.4437 0.401101 4.61503C0.287396 4.78636 0.225338 4.98676 0.222322 5.19237C0.185488 7.76962 0.704405 16.8989 9.44582 21.5669ZM6.39732 9.15087L8.8814 11.6349L13.5322 6.9842L15.064 8.51603L8.8814 14.6986L4.86549 10.6827L6.39732 9.15087Z" fill="#D92C27"/>
</svg>
