<svg width="27" height="27" viewBox="0 0 27 27" fill="none" xmlns="http://www.w3.org/2000/svg">
<path d="M26.2768 8.4375C26.6746 8.4375 27 8.15273 27 7.80469V5.69531C27 5.34727 26.6746 5.0625 26.2768 5.0625H25.0714V2.53125C25.0714 1.13379 23.7757 0 22.1786 0H2.89286C1.29576 0 0 1.13379 0 2.53125V24.4688C0 25.8662 1.29576 27 2.89286 27H22.1786C23.7757 27 25.0714 25.8662 25.0714 24.4688V21.9375H26.2768C26.6746 21.9375 27 21.6527 27 21.3047V19.1953C27 18.8473 26.6746 18.5625 26.2768 18.5625H25.0714V15.1875H26.2768C26.6746 15.1875 27 14.9027 27 14.5547V12.4453C27 12.0973 26.6746 11.8125 26.2768 11.8125H25.0714V8.4375H26.2768ZM12.5357 6.75C14.6632 6.75 16.3929 8.26348 16.3929 10.125C16.3929 11.9865 14.6632 13.5 12.5357 13.5C10.4083 13.5 8.67857 11.9865 8.67857 10.125C8.67857 8.26348 10.4083 6.75 12.5357 6.75ZM19.2857 19.2375C19.2857 19.7965 18.683 20.25 17.9357 20.25H7.13571C6.38839 20.25 5.78571 19.7965 5.78571 19.2375V18.225C5.78571 16.548 7.59978 15.1875 9.83571 15.1875H10.1371C10.8783 15.4564 11.6859 15.6094 12.5357 15.6094C13.3855 15.6094 14.1991 15.4564 14.9344 15.1875H15.2357C17.4717 15.1875 19.2857 16.548 19.2857 18.225V19.2375Z" fill="black"/>
</svg>
