<svg width="65" height="65" viewBox="0 0 65 65" fill="none" xmlns="http://www.w3.org/2000/svg">
<g clip-path="url(#clip0_1229_24571)">
<path d="M44.6875 4.0625C45.7649 4.0625 46.7983 4.49051 47.5601 5.25238C48.322 6.01425 48.75 7.04756 48.75 8.125V56.875C48.75 57.9524 48.322 58.9858 47.5601 59.7476C46.7983 60.5095 45.7649 60.9375 44.6875 60.9375H20.3125C19.2351 60.9375 18.2017 60.5095 17.4399 59.7476C16.678 58.9858 16.25 57.9524 16.25 56.875V8.125C16.25 7.04756 16.678 6.01425 17.4399 5.25238C18.2017 4.49051 19.2351 4.0625 20.3125 4.0625H44.6875ZM20.3125 0C18.1576 0 16.091 0.856024 14.5673 2.37976C13.0435 3.90349 12.1875 5.97012 12.1875 8.125V56.875C12.1875 59.0299 13.0435 61.0965 14.5673 62.6202C16.091 64.144 18.1576 65 20.3125 65H44.6875C46.8424 65 48.909 64.144 50.4327 62.6202C51.9565 61.0965 52.8125 59.0299 52.8125 56.875V8.125C52.8125 5.97012 51.9565 3.90349 50.4327 2.37976C48.909 0.856024 46.8424 0 44.6875 0L20.3125 0Z" fill="black"/>
<path d="M32.5 56.875C33.5774 56.875 34.6108 56.447 35.3726 55.6851C36.1345 54.9233 36.5625 53.8899 36.5625 52.8125C36.5625 51.7351 36.1345 50.7017 35.3726 49.9399C34.6108 49.178 33.5774 48.75 32.5 48.75C31.4226 48.75 30.3892 49.178 29.6274 49.9399C28.8655 50.7017 28.4375 51.7351 28.4375 52.8125C28.4375 53.8899 28.8655 54.9233 29.6274 55.6851C30.3892 56.447 31.4226 56.875 32.5 56.875Z" fill="black"/>
</g>
<defs>
<clipPath id="clip0_1229_24571">
<rect width="65" height="65" fill="white"/>
</clipPath>
</defs>
</svg>
