<svg width="75" height="65" viewBox="0 0 75 65" fill="none" xmlns="http://www.w3.org/2000/svg">
<path d="M22.5 51.489C18.375 51.489 15.0375 54.3509 15.0375 57.8488C15.0375 61.3467 18.375 64.2086 22.5 64.2086C26.625 64.2086 30 61.3467 30 57.8488C30 54.3509 26.625 51.489 22.5 51.489ZM60 51.489C55.875 51.489 52.5375 54.3509 52.5375 57.8488C52.5375 61.3467 55.875 64.2086 60 64.2086C64.125 64.2086 67.5 61.3467 67.5 57.8488C67.5 54.3509 64.125 51.489 60 51.489ZM26.625 35.5894H54.5625C57.375 35.5894 59.85 34.2856 61.125 32.3141L75 10.0229L68.4375 6.97018L54.5625 29.2296H28.2375L12.2625 0.610352H0V6.97018H7.5L21 31.1057L15.9375 38.8647C13.2 43.1258 16.8 48.309 22.5 48.309H67.5V41.9492H22.5L26.625 35.5894ZM41.25 0.610352L56.25 13.33L41.25 26.0497L35.9625 21.566L41.8875 16.5099H26.25V10.1501H41.8875L35.925 5.09403L41.25 0.610352Z" fill="white"/>
</svg>
