<svg width="65" height="65" viewBox="0 0 65 65" fill="none" xmlns="http://www.w3.org/2000/svg">
<path d="M54.168 54.1666H10.8346C9.39805 54.1666 8.0203 53.5959 7.00447 52.5801C5.98865 51.5643 5.41797 50.1865 5.41797 48.7499V16.0143C5.47872 14.6189 6.07612 13.301 7.08543 12.3356C8.09474 11.3702 9.43795 10.8319 10.8346 10.8333H54.168C55.6046 10.8333 56.9823 11.4039 57.9981 12.4198C59.014 13.4356 59.5846 14.8133 59.5846 16.2499V48.7499C59.5846 50.1865 59.014 51.5643 57.9981 52.5801C56.9823 53.5959 55.6046 54.1666 54.168 54.1666ZM10.8346 21.3091V48.7499H54.168V21.3091L32.5013 35.7499L10.8346 21.3091ZM13.0013 16.2499L32.5013 29.2499L52.0013 16.2499H13.0013Z" fill="black"/>
</svg>
