<svg width="27" height="27" viewBox="0 0 27 27" fill="none" xmlns="http://www.w3.org/2000/svg">
<path d="M13.5004 5.08435e-06C16.2228 8.09009e-05 18.8815 0.823224 21.1277 2.3614C23.3739 3.89958 25.1025 6.08092 26.0868 8.61914C27.071 11.1574 27.2649 13.9339 26.643 16.5842C26.021 19.2346 24.6123 21.635 22.6017 23.4704C20.591 25.3059 18.0725 26.4905 15.3765 26.8689C12.6806 27.2473 9.93323 26.8019 7.49501 25.5909C5.05679 24.3799 3.04165 22.4601 1.71406 20.0834C0.386462 17.7067 -0.191548 14.9841 0.0558858 12.273C0.0691821 12.1259 0.111331 11.9828 0.179925 11.8519C0.24852 11.7211 0.342217 11.605 0.455667 11.5103C0.569117 11.4157 0.700098 11.3443 0.841131 11.3003C0.982165 11.2563 1.13049 11.2405 1.27764 11.2537C1.42478 11.267 1.56787 11.3092 1.69872 11.3778C1.82958 11.4464 1.94565 11.5401 2.04029 11.6535C2.13494 11.767 2.20631 11.898 2.25034 12.039C2.29436 12.18 2.31018 12.3284 2.29688 12.4755C2.14257 14.1191 2.35384 15.7766 2.91556 17.3289C3.47727 18.8813 4.37552 20.2902 5.54588 21.4545C6.58847 22.5018 7.8282 23.3323 9.19348 23.8979C10.5588 24.4636 12.0226 24.7532 13.5004 24.75C15.4181 24.7496 17.3038 24.259 18.9786 23.3248C20.6534 22.3906 22.0615 21.0438 23.0693 19.4122C24.0771 17.7807 24.6512 15.9186 24.7369 14.0029C24.8226 12.0871 24.4172 10.1812 23.5591 8.46616C22.701 6.75115 21.4188 5.28395 19.8341 4.2039C18.2495 3.12385 16.4151 2.46681 14.5051 2.29516C12.5951 2.12351 10.6729 2.44296 8.92109 3.22317C7.16928 4.00339 5.64599 5.21846 4.49588 6.753H8.62988C8.91492 6.75309 9.18929 6.86137 9.39757 7.05596C9.60584 7.25055 9.73249 7.51695 9.75192 7.80132C9.77135 8.08569 9.68211 8.36684 9.50223 8.58795C9.32236 8.80906 9.06526 8.95365 8.78288 8.9925L8.62988 9.003H1.87538C1.60353 9.00299 1.34087 8.90454 1.13599 8.72585C0.931107 8.54716 0.797858 8.30033 0.760885 8.031L0.750385 7.878V1.128C0.750473 0.84297 0.858752 0.568594 1.05334 0.360317C1.24794 0.152041 1.51433 0.025394 1.79871 0.00596602C2.08308 -0.013462 2.36422 0.075778 2.58533 0.255654C2.80644 0.43553 2.95103 0.69263 2.98988 0.975005L3.00038 1.128L2.99888 5.0145C4.26353 3.44726 5.86329 2.18331 7.68059 1.31555C9.49788 0.447782 11.4865 -0.00174395 13.5004 5.08435e-06ZM12.3754 6C12.6472 6.00001 12.9099 6.09847 13.1148 6.27715C13.3197 6.45584 13.4529 6.70267 13.4899 6.972L13.5004 7.125V13.5H16.8754C17.1604 13.5001 17.4348 13.6084 17.6431 13.803C17.8513 13.9976 17.978 14.2639 17.9974 14.5483C18.0168 14.8327 17.9276 15.1138 17.7477 15.3349C17.5679 15.5561 17.3108 15.7006 17.0284 15.7395L16.8754 15.75H12.3754C12.1035 15.75 11.8409 15.6515 11.636 15.4728C11.4311 15.2942 11.2979 15.0473 11.2609 14.778L11.2504 14.625V7.125C11.2504 6.82663 11.3689 6.54048 11.5799 6.32951C11.7909 6.11853 12.077 6 12.3754 6Z" fill="black"/>
</svg>
