<svg width="36" height="28" viewBox="0 0 36 28" fill="none" xmlns="http://www.w3.org/2000/svg">
<g clip-path="url(#clip0_1262_25329)">
<path d="M6.54338 27.8609V26.0077C6.54338 25.2971 6.11112 24.8339 5.3702 24.8339C4.99982 24.8339 4.59849 24.9574 4.32063 25.359C4.10465 25.0192 3.79599 24.8339 3.33294 24.8339C3.02414 24.8339 2.71562 24.9265 2.46856 25.2663V24.8957H1.82031V27.8609H2.46856V26.2238C2.46856 25.6988 2.74642 25.4516 3.17868 25.4516C3.61066 25.4516 3.82693 25.7296 3.82693 26.2238V27.8609H4.47517V26.2238C4.47517 25.6988 4.78369 25.4516 5.18501 25.4516C5.61727 25.4516 5.83326 25.7296 5.83326 26.2238V27.8609H6.54338ZM16.1435 24.8957H15.094V24H14.4458V24.8957H13.8593V25.4824H14.4457V26.8416C14.4457 27.5212 14.7235 27.9226 15.4644 27.9226C15.7423 27.9226 16.0508 27.83 16.2671 27.7065L16.0817 27.1504C15.8966 27.274 15.6806 27.3049 15.5262 27.3049C15.2175 27.3049 15.094 27.1196 15.094 26.8106V25.4824H16.1435V24.8957ZM21.6383 24.8338C21.2679 24.8338 21.0209 25.0192 20.8665 25.2663V24.8957H20.2183V27.8609H20.8665V26.193C20.8665 25.6988 21.0825 25.4208 21.4839 25.4208C21.6073 25.4208 21.7617 25.4517 21.8852 25.4825L22.0704 24.8649C21.9469 24.8339 21.7617 24.8339 21.6383 24.8339V24.8338ZM13.3345 25.1427C13.0257 24.9265 12.5936 24.8339 12.1305 24.8339C11.3898 24.8339 10.8959 25.2045 10.8959 25.7914C10.8959 26.2857 11.2663 26.5636 11.9145 26.6563L12.2232 26.6872C12.5628 26.7489 12.748 26.8416 12.748 26.9961C12.748 27.2122 12.5011 27.3667 12.0688 27.3667C11.6367 27.3667 11.2971 27.2122 11.081 27.0579L10.7723 27.552C11.1119 27.7991 11.575 27.9226 12.0379 27.9226C12.9022 27.9226 13.3962 27.5212 13.3962 26.9651C13.3962 26.44 12.9949 26.162 12.3775 26.0694L12.0688 26.0385C11.7909 26.0075 11.575 25.9459 11.575 25.7606C11.575 25.5443 11.7909 25.4208 12.1305 25.4208C12.5011 25.4208 12.8714 25.5751 13.0566 25.6679L13.3345 25.1427ZM30.5595 24.8339C30.1889 24.8339 29.942 25.0192 29.7876 25.2663V24.8957H29.1394V27.8609H29.7876V26.193C29.7876 25.6988 30.0037 25.4208 30.4049 25.4208C30.5285 25.4208 30.6829 25.4517 30.8064 25.4825L30.9916 24.8649C30.8681 24.8339 30.6829 24.8339 30.5595 24.8339ZM22.2865 26.3783C22.2865 27.274 22.9038 27.9226 23.8609 27.9226C24.293 27.9226 24.6016 27.83 24.9103 27.583L24.6016 27.0579C24.3547 27.2432 24.1078 27.3358 23.8299 27.3358C23.3051 27.3358 22.9347 26.9651 22.9347 26.3783C22.9347 25.8223 23.3051 25.4516 23.8299 25.4208C24.1078 25.4208 24.3547 25.5134 24.6016 25.6988L24.9103 25.1737C24.6016 24.9265 24.293 24.8339 23.8609 24.8339C22.9038 24.8339 22.2865 25.4825 22.2865 26.3783ZM28.2751 26.3783V24.8957H27.6269V25.2663C27.4107 24.9884 27.1021 24.8339 26.7008 24.8339C25.8673 24.8339 25.2191 25.4825 25.2191 26.3783C25.2191 27.274 25.8673 27.9226 26.7008 27.9226C27.1329 27.9226 27.4417 27.7683 27.6269 27.4902V27.8609H28.2751V26.3783ZM25.8981 26.3783C25.8981 25.8532 26.2377 25.4208 26.7933 25.4208C27.3181 25.4208 27.6886 25.8223 27.6886 26.3783C27.6886 26.9034 27.3181 27.3358 26.7933 27.3358C26.2377 27.3048 25.8981 26.9034 25.8981 26.3783ZM18.1501 24.8339C17.2857 24.8339 16.6683 25.4516 16.6683 26.3783C16.6683 27.3049 17.2856 27.9226 18.1809 27.9226C18.613 27.9226 19.0453 27.7991 19.3849 27.5212L19.0761 27.0579C18.8291 27.2432 18.5205 27.3667 18.2118 27.3667C17.8105 27.3667 17.4092 27.1814 17.3165 26.6562H19.5083V26.4092C19.5393 25.4516 18.9835 24.8339 18.15 24.8339H18.1501ZM18.1501 25.3898C18.5513 25.3898 18.8293 25.637 18.8909 26.1004H17.3474C17.4092 25.6988 17.687 25.3898 18.1501 25.3898ZM34.2328 26.3783V23.7219H33.5846V25.2663C33.3684 24.9884 33.0598 24.8339 32.6585 24.8339C31.825 24.8339 31.1768 25.4825 31.1768 26.3783C31.1768 27.274 31.825 27.9226 32.6585 27.9226C33.0907 27.9226 33.3994 27.7683 33.5846 27.4902V27.8609H34.2328V26.3783ZM31.8559 26.3783C31.8559 25.8532 32.1954 25.4208 32.7511 25.4208C33.2759 25.4208 33.6463 25.8223 33.6463 26.3783C33.6463 26.9034 33.2759 27.3358 32.7511 27.3358C32.1954 27.3048 31.8559 26.9034 31.8559 26.3783ZM10.1858 26.3783V24.8957H9.53755V25.2663C9.32142 24.9884 9.01276 24.8339 8.61144 24.8339C7.778 24.8339 7.12975 25.4825 7.12975 26.3783C7.12975 27.274 7.778 27.9226 8.61144 27.9226C9.0437 27.9226 9.35235 27.7683 9.53755 27.4902V27.8609H10.1858V26.3783ZM7.778 26.3783C7.778 25.8532 8.11759 25.4208 8.67317 25.4208C9.19795 25.4208 9.56848 25.8223 9.56848 26.3783C9.56848 26.9034 9.19795 27.3358 8.67317 27.3358C8.11759 27.3048 7.778 26.9034 7.778 26.3783Z" fill="black"/>
<path d="M13.1211 2.37842H22.8448V19.861H13.1211V2.37842Z" fill="#FF5F00"/>
<path d="M13.7368 11.1197C13.7368 7.5676 15.4037 4.41696 17.9657 2.37831C16.0829 0.895719 13.706 0 11.113 0C4.96985 0 0 4.97288 0 11.1197C0 17.2663 4.96985 22.2393 11.1129 22.2393C13.7059 22.2393 16.0827 21.3436 17.9657 19.8609C15.4037 17.8532 13.7368 14.6717 13.7368 11.1197Z" fill="#EB001B"/>
<path d="M35.9618 11.1197C35.9618 17.2663 30.992 22.2393 24.8489 22.2393C22.256 22.2393 19.8791 21.3436 17.9961 19.8609C20.5891 17.8224 22.2252 14.6717 22.2252 11.1197C22.2252 7.5676 20.5581 4.41696 17.9961 2.37831C19.879 0.895719 22.256 0 24.8489 0C30.992 0 35.962 5.00384 35.962 11.1197H35.9618Z" fill="#F79E1B"/>
</g>
<defs>
<clipPath id="clip0_1262_25329">
<rect width="36" height="28" fill="white" transform="matrix(-1 0 0 1 36 0)"/>
</clipPath>
</defs>
</svg>
