<svg width="27" height="27" viewBox="0 0 27 27" fill="none" xmlns="http://www.w3.org/2000/svg">
<path d="M13.5002 25.71C13.9727 25.6991 14.4261 25.5215 14.7802 25.2086C15.1343 24.8956 15.3663 24.4675 15.4352 24H11.4902C11.5611 24.4802 11.804 24.9184 12.1737 25.2329C12.5434 25.5475 13.0149 25.717 13.5002 25.71Z" fill="black"/>
<path d="M24.3821 20.8724C23.6589 20.2277 23.0257 19.4886 22.4996 18.6749C21.9253 17.5518 21.581 16.3253 21.4871 15.0674V11.3624C21.4841 10.9124 21.4439 10.4634 21.3671 10.0199C20.7768 9.90192 20.2095 9.68917 19.6871 9.38993C19.8862 10.0311 19.9874 10.6986 19.9871 11.3699V15.0749C20.079 16.6094 20.5011 18.106 21.2246 19.4624C21.7424 20.2829 22.3568 21.0383 23.0546 21.7124H3.84711C4.54492 21.0383 5.15931 20.2829 5.67711 19.4624C6.40057 18.106 6.82268 16.6094 6.91461 15.0749V11.3624C6.91066 10.4944 7.07797 9.6342 7.40694 8.83097C7.73592 8.02773 8.2201 7.29727 8.83177 6.68142C9.44344 6.06557 10.1706 5.57642 10.9716 5.24199C11.7725 4.90755 12.6316 4.73439 13.4996 4.73243C14.7699 4.73344 16.0117 5.10912 17.0696 5.81243C16.953 5.38417 16.8875 4.94359 16.8746 4.49993V4.02743C16.0915 3.6422 15.2502 3.38879 14.3846 3.27743V2.33243C14.3846 2.06688 14.2791 1.81221 14.0913 1.62444C13.9036 1.43667 13.6489 1.33118 13.3834 1.33118C13.1178 1.33118 12.8631 1.43667 12.6754 1.62444C12.4876 1.81221 12.3821 2.06688 12.3821 2.33243V3.31493C10.4439 3.58834 8.67004 4.55373 7.38802 6.03288C6.10601 7.51202 5.40241 9.40503 5.40711 11.3624V15.0674C5.31318 16.3253 4.96894 17.5518 4.39461 18.6749C3.87777 19.4867 3.25476 20.2257 2.54211 20.8724C2.46211 20.9427 2.39799 21.0292 2.35402 21.1262C2.31005 21.2232 2.28724 21.3284 2.28711 21.4349V22.4549C2.28711 22.6538 2.36613 22.8446 2.50678 22.9853C2.64743 23.1259 2.8382 23.2049 3.03711 23.2049H23.8871C24.086 23.2049 24.2768 23.1259 24.4174 22.9853C24.5581 22.8446 24.6371 22.6538 24.6371 22.4549V21.4349C24.637 21.3284 24.6142 21.2232 24.5702 21.1262C24.5262 21.0292 24.4621 20.9427 24.3821 20.8724Z" fill="black"/>
<path d="M22.5 8.25C24.5711 8.25 26.25 6.57107 26.25 4.5C26.25 2.42893 24.5711 0.75 22.5 0.75C20.4289 0.75 18.75 2.42893 18.75 4.5C18.75 6.57107 20.4289 8.25 22.5 8.25Z" fill="black"/>
</svg>
