<svg width="31" height="34" viewBox="0 0 31 34" fill="none" xmlns="http://www.w3.org/2000/svg">
<path d="M20.3438 20.5415C20.0868 20.5415 19.8404 20.6534 19.6587 20.8527C19.4771 21.052 19.375 21.3222 19.375 21.604C19.375 21.8858 19.4771 22.156 19.6587 22.3553C19.8404 22.5546 20.0868 22.6665 20.3438 22.6665H23.5729C23.8298 22.6665 24.0763 22.5546 24.2579 22.3553C24.4396 22.156 24.5417 21.8858 24.5417 21.604C24.5417 21.3222 24.4396 21.052 24.2579 20.8527C24.0763 20.6534 23.8298 20.5415 23.5729 20.5415H20.3438Z" fill="black"/>
<path d="M6.13411 7.08325C5.19204 7.08325 4.28856 7.4937 3.62241 8.22431C2.95627 8.95493 2.58203 9.94585 2.58203 10.9791V23.0208C2.58203 24.054 2.95627 25.0449 3.62241 25.7755C4.28856 26.5061 5.19204 26.9166 6.13411 26.9166H24.8633C25.8054 26.9166 26.7088 26.5061 27.375 25.7755C28.0411 25.0449 28.4154 24.054 28.4154 23.0208V10.9791C28.4154 9.94585 28.0411 8.95493 27.375 8.22431C26.7088 7.4937 25.8054 7.08325 24.8633 7.08325H6.13411ZM4.51953 23.0208V15.5833H26.4779V23.0208C26.4779 23.9983 25.7545 24.7916 24.8633 24.7916H6.13411C5.24286 24.7916 4.51953 23.9983 4.51953 23.0208ZM4.51953 13.4583V10.9791C4.51953 10.0016 5.24286 9.20825 6.13411 9.20825H24.8633C25.7545 9.20825 26.4779 10.0016 26.4779 10.9791V13.4583H4.51953Z" fill="black"/>
</svg>
