<svg width="26" height="24" viewBox="0 0 26 24" fill="none" xmlns="http://www.w3.org/2000/svg">
<path d="M24.6048 8.45118L17.1664 7.37013L13.8412 0.628917C13.7503 0.444347 13.6009 0.294933 13.4164 0.204112C12.9535 -0.0244032 12.391 0.166026 12.1595 0.628917L8.83433 7.37013L1.39585 8.45118C1.19077 8.48048 1.00327 8.57716 0.85972 8.72364C0.68617 8.90202 0.590536 9.142 0.593832 9.39086C0.597129 9.63971 0.699085 9.87707 0.877298 10.0508L6.25913 15.2979L4.98765 22.707C4.95783 22.8794 4.97691 23.0567 5.0427 23.2187C5.1085 23.3808 5.2184 23.5212 5.35992 23.624C5.50145 23.7268 5.66894 23.7878 5.84341 23.8003C6.01788 23.8127 6.19235 23.776 6.34702 23.6943L13.0003 20.1963L19.6537 23.6943C19.8353 23.791 20.0462 23.8233 20.2484 23.7881C20.7582 23.7002 21.1009 23.2168 21.013 22.707L19.7416 15.2979L25.1234 10.0508C25.2699 9.90724 25.3666 9.71974 25.3959 9.51466C25.475 9.00196 25.1175 8.52736 24.6048 8.45118Z" fill="#D92C27"/>
</svg>
