<svg width="45" height="45" viewBox="0 0 45 45" fill="none" xmlns="http://www.w3.org/2000/svg">
<path d="M40.3125 33.75H27.1875V13.125H37.125C37.9687 13.125 38.625 13.6875 38.9062 14.4375L42.1875 24.375V31.875C42.1875 32.9062 41.3438 33.75 40.3125 33.75Z" fill="#8BC34A"/>
<path d="M27.1875 33.75H4.6875C3.65625 33.75 2.8125 32.9062 2.8125 31.875V8.4375C2.8125 7.40625 3.65625 6.5625 4.6875 6.5625H25.3125C26.3438 6.5625 27.1875 7.40625 27.1875 8.4375V33.75Z" fill="#388E3C"/>
<path d="M34.6875 38.4375C37.2763 38.4375 39.375 36.3388 39.375 33.75C39.375 31.1612 37.2763 29.0625 34.6875 29.0625C32.0987 29.0625 30 31.1612 30 33.75C30 36.3388 32.0987 38.4375 34.6875 38.4375Z" fill="#37474F"/>
<path d="M12.1875 38.4375C14.7763 38.4375 16.875 36.3388 16.875 33.75C16.875 31.1612 14.7763 29.0625 12.1875 29.0625C9.59867 29.0625 7.5 31.1612 7.5 33.75C7.5 36.3388 9.59867 38.4375 12.1875 38.4375Z" fill="#37474F"/>
<path d="M34.6875 35.625C35.723 35.625 36.5625 34.7855 36.5625 33.75C36.5625 32.7145 35.723 31.875 34.6875 31.875C33.652 31.875 32.8125 32.7145 32.8125 33.75C32.8125 34.7855 33.652 35.625 34.6875 35.625Z" fill="#78909C"/>
<path d="M12.1875 35.625C13.223 35.625 14.0625 34.7855 14.0625 33.75C14.0625 32.7145 13.223 31.875 12.1875 31.875C11.152 31.875 10.3125 32.7145 10.3125 33.75C10.3125 34.7855 11.152 35.625 12.1875 35.625Z" fill="#78909C"/>
<path d="M38.4375 23.4375H31.875C31.3125 23.4375 30.9375 23.0625 30.9375 22.5V15.9375C30.9375 15.375 31.3125 15 31.875 15H36.8437C37.2187 15 37.5938 15.2813 37.6875 15.6563L39.2813 20.5312C39.2813 20.625 39.375 20.7188 39.375 20.8125V22.5C39.375 23.0625 39 23.4375 38.4375 23.4375Z" fill="#37474F"/>
<path d="M20.4375 12.9375L13.0312 20.3438L9.5625 16.7812L7.5 18.8438L13.0312 24.375L22.5 14.9062L20.4375 12.9375Z" fill="#DCEDC8"/>
</svg>
