<svg width="20" height="20" viewBox="0 0 20 20" fill="none" xmlns="http://www.w3.org/2000/svg">
<path d="M10.0013 1.66675C5.4063 1.66675 1.66797 5.40508 1.66797 10.0001C1.66797 14.5951 5.4063 18.3334 10.0013 18.3334C14.5963 18.3334 18.3346 14.5951 18.3346 10.0001C18.3346 5.40508 14.5963 1.66675 10.0013 1.66675ZM10.0013 16.6667C6.32547 16.6667 3.33464 13.6759 3.33464 10.0001C3.33464 6.32425 6.32547 3.33341 10.0013 3.33341C13.6771 3.33341 16.668 6.32425 16.668 10.0001C16.668 13.6759 13.6771 16.6667 10.0013 16.6667Z" fill="black"/>
<path d="M10.8346 5.83325H9.16797V10.3449L11.9121 13.0891L13.0905 11.9108L10.8346 9.65492V5.83325Z" fill="black"/>
</svg>
